<?xml version="1.0" encoding="utf-8"?>
<?xml-stylesheet type="text/xsl" href="rss1.xsl"?>
<rss version="2.0" xmlns:atom="http://www.w3.org/2005/Atom" xmlns:content="http://purl.org/rss/1.0/modules/content/" xmlns:dc="http://purl.org/dc/elements/1.1/" xmlns:media="http://search.yahoo.com/mrss/">
<channel>
 <title>Getty</title>
 <link>http://www.gettyimg.com/</link>
 <atom:link href="http://www.gettyimg.com/" rel="self" type="application/rss+xml" />

 
                <item>
                <title><![CDATA[【Interviews / TV shows / Others】FEED - 96th Academy Awards (+Red Carpet) FEED HDTV MPEG2 1080i MP2,DolbyE-ilya2129]]></title>
                <link><![CDATA[https://sharemania.us/threads/96th-academy-awards-red-carpet-feed-hdtv-mpeg2-1080i-mp2-dolbye-ilya2129.239718/]]></link>
                <description><![CDATA[<article>
<blockquote class="messageText SelectQuoteContainer ugc baseHtml">
<div style="text-align: center"><img src="https://i123.fastpic.org/big/2024/0311/a3/a4e21b2959f405c078d1b93014840ca3.png?r=1" class="bbCodeImage LbImage" alt="[​IMG]" data-url="https://i123.fastpic.org/big/2024/0311/a3/a4e21b2959f405c078d1b93014840ca3.png?r=1" style=""><br>
<br>
<a href="https://postimg.cc/MnTVCrrn" target="_blank" class="externalLink" rel="nofollow"><img src="https://i.postimg.cc/MnTVCrrn/vlcsnap-2024-03-11-14h22m03s206.png" class="bbCodeImage LbImage" alt="[​IMG]" data-url="https://i.postimg.cc/MnTVCrrn/vlcsnap-2024-03-11-14h22m03s206.png"></a> <a href="https://postimg.cc/yJ39d3KB" target="_blank" class="externalLink" rel="nofollow"><img src="https://i.postimg.cc/yJ39d3KB/vlcsnap-2024-03-11-14h22m05s893.png" class="bbCodeImage LbImage" alt="[​IMG]" data-url="https://i.postimg.cc/yJ39d3KB/vlcsnap-2024-03-11-14h22m05s893.png"></a> <a href="https://postimg.cc/Z0xfZ2jH" target="_blank" class="externalLink" rel="nofollow"><img src="https://i.postimg.cc/Z0xfZ2jH/vlcsnap-2024-03-11-14h22m09s060.png" class="bbCodeImage LbImage" alt="[​IMG]" data-url="https://i.postimg.cc/Z0xfZ2jH/vlcsnap-2024-03-11-14h22m09s060.png"></a> <a href="https://postimg.cc/bSgSMQx0" target="_blank" class="externalLink" rel="nofollow"><img src="https://i.postimg.cc/bSgSMQx0/vlcsnap-2024-03-11-14h22m12s219.png" class="bbCodeImage LbImage" alt="[​IMG]" data-url="https://i.postimg.cc/bSgSMQx0/vlcsnap-2024-03-11-14h22m12s219.png"></a> <a href="https://postimg.cc/18jwscLJ" target="_blank" class="externalLink" rel="nofollow"><img src="https://i.postimg.cc/18jwscLJ/vlcsnap-2024-03-11-14h22m15s822.png" class="bbCodeImage LbImage" alt="[​IMG]" data-url="https://i.postimg.cc/18jwscLJ/vlcsnap-2024-03-11-14h22m15s822.png"></a> <a href="https://postimg.cc/zH8R0dgX" target="_blank" class="externalLink" rel="nofollow"><img src="https://i.postimg.cc/zH8R0dgX/vlcsnap-2024-03-11-14h22m18s919.png" class="bbCodeImage LbImage" alt="[​IMG]" data-url="https://i.postimg.cc/zH8R0dgX/vlcsnap-2024-03-11-14h22m18s919.png"></a> <a href="https://postimg.cc/vDsPJb7D" target="_blank" class="externalLink" rel="nofollow"><img src="https://i.postimg.cc/vDsPJb7D/vlcsnap-2024-03-11-14h22m28s525.png" class="bbCodeImage LbImage" alt="[​IMG]" data-url="https://i.postimg.cc/vDsPJb7D/vlcsnap-2024-03-11-14h22m28s525.png"></a> <a href="https://postimg.cc/r0SrG6zP" target="_blank" class="externalLink" rel="nofollow"><img src="https://i.postimg.cc/r0SrG6zP/vlcsnap-2024-03-11-14h22m32s192.png" class="bbCodeImage LbImage" alt="[​IMG]" data-url="https://i.postimg.cc/r0SrG6zP/vlcsnap-2024-03-11-14h22m32s192.png"></a> <a href="https://postimg.cc/8J8vrkkv" target="_blank" class="externalLink" rel="nofollow"><img src="https://i.postimg.cc/8J8vrkkv/vlcsnap-2024-03-11-14h22m35s463.png" class="bbCodeImage LbImage" alt="[​IMG]" data-url="https://i.postimg.cc/8J8vrkkv/vlcsnap-2024-03-11-14h22m35s463.png"></a> <a href="https://postimg.cc/rKhQR4Bt" target="_blank" class="externalLink" rel="nofollow"><img src="https://i.postimg.cc/rKhQR4Bt/vlcsnap-2024-03-11-14h22m38s453.png" class="bbCodeImage LbImage" alt="[​IMG]" data-url="https://i.postimg.cc/rKhQR4Bt/vlcsnap-2024-03-11-14h22m38s453.png"></a> <a href="https://postimg.cc/gxn4VJpt" target="_blank" class="externalLink" rel="nofollow"><img src="https://i.postimg.cc/gxn4VJpt/vlcsnap-2024-03-11-14h22m42s136.png" class="bbCodeImage LbImage" alt="[​IMG]" data-url="https://i.postimg.cc/gxn4VJpt/vlcsnap-2024-03-11-14h22m42s136.png"></a> <a href="https://postimg.cc/3kV1nTJ8" target="_blank" class="externalLink" rel="nofollow"><img src="https://i.postimg.cc/3kV1nTJ8/vlcsnap-2024-03-11-14h22m45s336.png" class="bbCodeImage LbImage" alt="[​IMG]" data-url="https://i.postimg.cc/3kV1nTJ8/vlcsnap-2024-03-11-14h22m45s336.png"></a> <a href="https://postimg.cc/bGnT5BsQ" target="_blank" class="externalLink" rel="nofollow"><img src="https://i.postimg.cc/bGnT5BsQ/vlcsnap-2024-03-11-14h23m02s015.png" class="bbCodeImage LbImage" alt="[​IMG]" data-url="https://i.postimg.cc/bGnT5BsQ/vlcsnap-2024-03-11-14h23m02s015.png"></a> <a href="https://postimg.cc/S2prbfMH" target="_blank" class="externalLink" rel="nofollow"><img src="https://i.postimg.cc/S2prbfMH/vlcsnap-2024-03-11-14h23m05s003.png" class="bbCodeImage LbImage" alt="[​IMG]" data-url="https://i.postimg.cc/S2prbfMH/vlcsnap-2024-03-11-14h23m05s003.png"></a> <a href="https://postimg.cc/ppVsdC6H" target="_blank" class="externalLink" rel="nofollow"><img src="https://i.postimg.cc/ppVsdC6H/vlcsnap-2024-03-11-14h23m09s293.png" class="bbCodeImage LbImage" alt="[​IMG]" data-url="https://i.postimg.cc/ppVsdC6H/vlcsnap-2024-03-11-14h23m09s293.png"></a> <a href="https://postimg.cc/njY1F9Kr" target="_blank" class="externalLink" rel="nofollow"><img src="https://i.postimg.cc/njY1F9Kr/vlcsnap-2024-03-11-14h23m25s838.png" class="bbCodeImage LbImage" alt="[​IMG]" data-url="https://i.postimg.cc/njY1F9Kr/vlcsnap-2024-03-11-14h23m25s838.png"></a> <a href="https://postimg.cc/V0fWds4R" target="_blank" class="externalLink" rel="nofollow"><img src="https://i.postimg.cc/V0fWds4R/vlcsnap-2024-03-11-14h23m28s170.png" class="bbCodeImage LbImage" alt="[​IMG]" data-url="https://i.postimg.cc/V0fWds4R/vlcsnap-2024-03-11-14h23m28s170.png"></a> <a href="https://postimg.cc/c60mDTZn" target="_blank" class="externalLink" rel="nofollow"><img src="https://i.postimg.cc/c60mDTZn/vlcsnap-2024-03-11-14h23m31s729.png" class="bbCodeImage LbImage" alt="[​IMG]" data-url="https://i.postimg.cc/c60mDTZn/vlcsnap-2024-03-11-14h23m31s729.png"></a> <br>
<br>
​</div><br>
<div class="bbCodeBlock bbCodeCode">
<div class="type">Code:</div>
<pre>General
ID                                       : 1 (0x1)
Complete name                            : D:\96th Academy Awards FEED\96th Academy Awards FEED HDTV MPEG2 1080i MP2,DolbyE-ilya2129.ts
Format                                   : MPEG-TS
File size                                : 40.4 GiB
Duration                                 : 2 h 37 min
Overall bit rate mode                    : Variable
Overall bit rate                         : 36.7 Mb/s
Frame rate                               : 25.000 FPS

Video
ID                                       : 310 (0x136)
Menu ID                                  : 1 (0x1)
Format                                   : MPEG Video
Format version                           : Version 2
Format profile                           : Main@High
Format settings                          : BVOP
Format settings, BVOP                    : Yes
Format settings, Matrix                  : Default
Format settings, GOP                     : Variable
Codec ID                                 : 2
Duration                                 : 2 h 37 min
Bit rate mode                            : Constant
Bit rate                                 : 31.8 Mb/s
Maximum bit rate                         : 32.7 Mb/s
Width                                    : 1 920 pixels
Height                                   : 1 080 pixels
Display aspect ratio                     : 16:9
Frame rate                               : 25.000 FPS
Color space                              : YUV
Chroma subsampling                       : 4:2:0
Bit depth                                : 8 bits
Scan type                                : Interlaced
Scan order                               : Top Field First
Compression mode                         : Lossy
Bits/(Pixel*Frame)                       : 0.614
Time code of first frame                 : 17:05:27:02
Time code source                         : Group of pictures header
Stream size                              : 35.0 GiB (87%)
Color primaries                          : BT.709
Transfer characteristics                 : BT.709
Matrix coefficients                      : BT.709

Audio #1
ID                                       : 256 (0x100)
Menu ID                                  : 1 (0x1)
Format                                   : MPEG Audio
Format version                           : Version 1
Format profile                           : Layer 2
Codec ID                                 : 3
Duration                                 : 2 h 37 min
Bit rate mode                            : Constant
Bit rate                                 : 256 kb/s
Channel(s)                               : 2 channels
Sampling rate                            : 48.0 kHz
Frame rate                               : 41.667 FPS (1152 SPF)
Compression mode                         : Lossy
Stream size                              : 288 MiB (1%)
Language                                 : English
Language, more info                      : Clean effects

Audio #2
ID                                       : 257 (0x101)-1
Menu ID                                  : 1 (0x1)
Format                                   : Dolby E
Format settings                          : Little
Muxing mode                              : SMPTE ST 302 / SMPTE ST 337
Codec ID                                 : 6
Duration                                 : 2 h 37 min
Bit rate mode                            : Constant
Bit rate                                 : 1 291 kb/s
Channel(s)                               : 6 channels
Channel layout                           : L C Ls X R LFE Rs X
Sampling rate                            : 48.0 kHz
Frame rate                               : 25.000 FPS (1920 SPF)
Bit depth                                : 20 bits
Stream size                              : 1.42 GiB (4%)
Language                                 : English
Language, more info                      : Clean effects

Audio #3
ID                                       : 257 (0x101)-2
Menu ID                                  : 1 (0x1)
Format                                   : Dolby E
Format settings                          : Little
Muxing mode                              : SMPTE ST 302 / SMPTE ST 337
Codec ID                                 : 6
Duration                                 : 2 h 37 min
Bit rate mode                            : Constant
Bit rate                                 : 505 kb/s
Channel(s)                               : 2 channels
Channel layout                           : X X X L X X X R
Sampling rate                            : 48.0 kHz
Frame rate                               : 25.000 FPS (1920 SPF)
Bit depth                                : 20 bits
Stream size                              : 569 MiB (1%)
Language                                 : English
Language, more info                      : Clean effects

Audio #4
ID                                       : 258 (0x102)
Menu ID                                  : 1 (0x1)
Format                                   : MPEG Audio
Format version                           : Version 1
Format profile                           : Layer 2
Codec ID                                 : 3
Duration                                 : 2 h 37 min
Bit rate mode                            : Constant
Bit rate                                 : 256 kb/s
Channel(s)                               : 2 channels
Sampling rate                            : 48.0 kHz
Frame rate                               : 41.667 FPS (1152 SPF)
Compression mode                         : Lossy
Stream size                              : 288 MiB (1%)
Language                                 : English
Language, more info                      : Clean effects

Audio #5
ID                                       : 259 (0x103)
Menu ID                                  : 1 (0x1)
Format                                   : MPEG Audio
Format version                           : Version 1
Format profile                           : Layer 2
Codec ID                                 : 3
Duration                                 : 2 h 37 min
Bit rate mode                            : Constant
Bit rate                                 : 256 kb/s
Channel(s)                               : 2 channels
Sampling rate                            : 48.0 kHz
Frame rate                               : 41.667 FPS (1152 SPF)
Compression mode                         : Lossy
Stream size                              : 288 MiB (1%)
Language                                 : English
Language, more info                      : Clean effects


</pre>
</div><div style="text-align: center">
<div class="bbCodeBlock bbCodeVfcHH HiddenContent">
<div class="attribution type">Hidden Content:</div>
<blockquote>You must either reply or click 'Like' to see the hidden information contained here.</blockquote>
</div></div>
<div class="messageTextEndMarker">&nbsp;</div>
</blockquote>
</article>]]></description>
                <author><![CDATA[ilya2129]]></author>
                </item>

                </channel></rss>